{"title":"Godkiller 2010 DVDRip XviD-SPRiNTER","uid":5803213,"size":714827128,"categoryP":"video","categoryS":"movies","magnet":"?xt=urn:btih:e2193a45358c2959eddf7f8e5fd732ae7ac7f277&amp;dn=Godkiller+2010+DVDRip+XviD-SPRiNTER&amp;tr=udp%3A%2F%2Ftracker.openbittorrent.com%3A80&amp;tr=udp%3A%2F%2Fopen.demonii.com%3A1337&amp;tr=udp%3A%2F%2Ftracker.coppersurfer.tk%3A6969&amp;tr=udp%3A%2F%2Fexodus.desync.com%3A6969","seeders":1,"leechers":0,"uploader":"xenl","files":1,"time":1283302017,"description":"Godkiller 2010 DVDRip XviD-SPRiNTER\n &lt;a href=&quot;\nhttp://www.imdb.com/title/tt1384961/&quot; rel=&quot;nofollow&quot; target=&quot;_NEW&quot;&gt;\nhttp://www.imdb.com/title/tt1384961/&lt;/a&gt;\n\n\nSubtitles: N/A\n\nDate: 2010.09\n\nDirector: Matt Pizzolo\nPlot: About a 16-year-old boy's odyssey through a post-nuke wasteland as he searches for a new heart to save his dying sister.\nGenre: Animation | Sci-Fi\n\nCast\n\n\nLance Henriksen ... Mulciber (voice)\nDanielle Harris ... Halfpipe\nJustin Courtney Pierre ... Tommy (voice)\nNicki Clyne ... Soledad (voice)\nDavey Havok ... Dragos (voice)\nTiffany Shepis ... Angelfuck (voice)\nBill Moseley ... Dr. West (voice)\nKatie Nisa ... Rose (voice)\nLydia Lunch ... Bub (voice)\n\n\nFormat : AVI\nFormat/Info : Audio Video Interleave\nFile size : 701 MiB\nDuration : 1h 12mn\nOverall bit rate : 1 351 Kbps\nWriting application : VirtualDubMod 1.5.10.2 (build 2540/release)\nWriting library : VirtualDubMod build 2540/release\n\nVideo\nID : 0\nFormat : MPEG-4 Visual\nFormat profile : Advanced Simple@L5\nFormat settings, BVOP : Yes\nFormat settings, QPel : No\nFormat settings, GMC : No warppoints\nFormat settings, Matrix : Default (H.263)\nCodec ID : XVID\nCodec ID/Hint : XviD\nDuration : 1h 12mn\nBit rate : 1 209 Kbps\nWidth : 640 pixels\nHeight : 352 pixels\nDisplay aspect ratio : 16:9\nFrame rate : 23.976 fps\nColor space : YUV\nChroma subsampling : 4:2:0\nBit depth : 8 bits\nScan type : Progressive\nBits/(Pixel*Frame) : 0.224\nStream size : 627 MiB (89%)\nWriting library : XviD 1.1.2 (UTC 2006-11-01)\n\nAudio\nID : 1\nFormat : MPEG Audio\nFormat version : Version 1\nFormat profile : Layer 3\nCodec ID : 55\nCodec ID/Hint : MP3\nDuration : 1h 12mn\nBit rate mode : Variable\nBit rate : 129 Kbps\nMinimum bit rate : 128 Kbps\nChannel(s) : 2 channels\nSampling rate : 48.0 KHz\nStream size : 67.1 MiB (10%)\nAlignment : Aligned on interleaves\nInterleave, duration : 24 ms (0.58 video frame)\nInterleave, preload duration : 481 ms\nWriting library : LAME3.95\nEncoding settings : -m s -V 6 -q 3 -lowpass 16 --vbr-old -b 128","torrent":{"xt":"urn:btih:e2193a45358c2959eddf7f8e5fd732ae7ac7f277","amp;dn":"Godkiller+2010+DVDRip+XviD-SPRiNTER","amp;tr":["udp%3A%2F%2Ftracker.openbittorrent.com%3A80","udp%3A%2F%2Fopen.demonii.com%3A1337","udp%3A%2F%2Ftracker.coppersurfer.tk%3A6969","udp%3A%2F%2Fexodus.desync.com%3A6969"],"infoHash":"e2193a45358c2959eddf7f8e5fd732ae7ac7f277","infoHashBuffer":{"type":"Buffer","data":[226,25,58,69,53,140,41,89,237,223,127,142,95,215,50,174,122,199,242,119]},"announce":[],"urlList":[]}}